# xmcd CD database file
#
# Track frame offsets:
#	150
#	15812
#	28895
#	43892
#	57052
#	74250
#	89502
#	101642
#	122375
#	137817
#	152677
#
# Disc length: 2300 seconds
#
# Revision: 0
# Processed by: cddbd v1.4PL0 Copyright (c) Steve Scherf et al.
# Submitted via: CDex 1.50beta10
#
DISCID=8a08fa0b
DTITLE=Brownie McGhee and Sonny Terry - At The Bunkhouse
DYEAR=1965
DGENRE=Blues
TTITLE0=Ride And Roll
TTITLE1=Love, Truth And Confidence
TTITLE2=Miss Ida B.
TTITLE3=Baby, I Got My Mind Off You
TTITLE4=I'll Be Anything
TTITLE5=Don't Pity Me
TTITLE6=Whoee, Whoee
TTITLE7=I Gotta Look Under Your Hood
TTITLE8=C'mon If You're Comin'
TTITLE9=Burnt Child Afraid Of Fire
TTITLE10=Amen
EXTD=YEAR: 1965
EXTT0=
EXTT1=
EXTT2=
EXTT3=
EXTT4=
EXTT5=
EXTT6=
EXTT7=
EXTT8=
EXTT9=
EXTT10=
PLAYORDER=
